<?xml version="1.0" encoding="UTF-8" standalone="no"?>
<!-- Uploaded to: SVG Repo, www.svgrepo.com, Generator: SVG Repo Mixer Tools -->

<svg
   width="800px"
   height="800px"
   viewBox="0 0 24 24"
   fill="none"
   version="1.1"
   id="svg1"
   sodipodi:docname="instaltech-security-icon.svg"
   inkscape:version="1.4.2 (f4327f4, 2025-05-13)"
   xmlns:inkscape="http://www.inkscape.org/namespaces/inkscape"
   xmlns:sodipodi="http://sodipodi.sourceforge.net/DTD/sodipodi-0.dtd"
   xmlns="http://www.w3.org/2000/svg"
   xmlns:svg="http://www.w3.org/2000/svg">
  <defs
     id="defs1" />
  <sodipodi:namedview
     id="namedview1"
     pagecolor="#ffffff"
     bordercolor="#000000"
     borderopacity="0.25"
     inkscape:showpageshadow="2"
     inkscape:pageopacity="0.0"
     inkscape:pagecheckerboard="0"
     inkscape:deskcolor="#d1d1d1"
     inkscape:zoom="0.518125"
     inkscape:cx="314.5959"
     inkscape:cy="510.49457"
     inkscape:window-width="1920"
     inkscape:window-height="1009"
     inkscape:window-x="-8"
     inkscape:window-y="-8"
     inkscape:window-maximized="1"
     inkscape:current-layer="svg1" />
  <path
     id="path1"
     style="fill:#002cd7;fill-opacity:1"
     d="M 12 2.9750977 L 4.5 5.373457 L 4.5 12.725098 C 4.5 15.612198 6.4581022 18.972298 11.739492 20.928398 L 12 21.024902 L 12.260508 20.928398 C 17.541908 18.972298 19.5 15.612198 19.5 12.725098 L 19.5 5.373457 L 12 2.9750977 z M 12 4.4450977 L 18 6.5767383 L 18 12.725098 C 18 14.799598 16.6341 17.623208 12 19.423008 C 7.3659 17.623208 6 14.799598 6 12.725098 L 6 6.5767383 L 12 4.4450977 z M 16.656738 8.1598242 L 10.055039 14.738437 L 7.4586328 11.333848 L 6.7716211 11.691152 L 9.9107812 15.840176 L 17.228379 8.8224023 L 16.656738 8.1598242 z " />
</svg>
