<?xml version="1.0" encoding="UTF-8" standalone="no"?>
<!-- Uploaded to: SVG Repo, www.svgrepo.com, Generator: SVG Repo Mixer Tools -->

<svg
   width="800px"
   height="800px"
   viewBox="0 0 32 32"
   version="1.1"
   id="svg1"
   sodipodi:docname="instaltech-suitcase-icon.svg"
   inkscape:version="1.4.2 (f4327f4, 2025-05-13)"
   xmlns:inkscape="http://www.inkscape.org/namespaces/inkscape"
   xmlns:sodipodi="http://sodipodi.sourceforge.net/DTD/sodipodi-0.dtd"
   xmlns="http://www.w3.org/2000/svg"
   xmlns:svg="http://www.w3.org/2000/svg">
  <sodipodi:namedview
     id="namedview1"
     pagecolor="#ffffff"
     bordercolor="#000000"
     borderopacity="0.25"
     inkscape:showpageshadow="2"
     inkscape:pageopacity="0.0"
     inkscape:pagecheckerboard="0"
     inkscape:deskcolor="#d1d1d1"
     inkscape:zoom="1.03625"
     inkscape:cx="399.51749"
     inkscape:cy="400"
     inkscape:window-width="1920"
     inkscape:window-height="1009"
     inkscape:window-x="-8"
     inkscape:window-y="-8"
     inkscape:window-maximized="1"
     inkscape:current-layer="svg1" />
  <defs
     id="defs1">
    <clipPath
       id="clip-suitcase">
      <rect
         width="32"
         height="32"
         id="rect1" />
    </clipPath>
  </defs>
  <g
     id="suitcase"
     clip-path="url(#clip-suitcase)"
     style="fill:#002cd7;fill-opacity:1">
    <g
       id="Group_3110"
       data-name="Group 3110"
       transform="translate(-364 -104)"
       style="fill:#002cd7;fill-opacity:1">
      <g
         id="Group_3106"
         data-name="Group 3106"
         style="fill:#002cd7;fill-opacity:1">
        <g
           id="Group_3105"
           data-name="Group 3105"
           style="fill:#002cd7;fill-opacity:1">
          <g
             id="Group_3104"
             data-name="Group 3104"
             style="fill:#002cd7;fill-opacity:1">
            <path
               id="Path_3987"
               data-name="Path 3987"
               d="M391.458,112.927H368.542a3.5,3.5,0,0,0-3.5,3.5v13.1a3.5,3.5,0,0,0,3.5,3.5h22.916a3.5,3.5,0,0,0,3.5-3.5v-13.1A3.5,3.5,0,0,0,391.458,112.927Zm-22.916,2h22.916a1.5,1.5,0,0,1,1.5,1.5v2.232l-8.523,1.827a.989.989,0,0,0-.977-.886h-6.916a.989.989,0,0,0-.977.886l-8.523-1.827v-2.232A1.5,1.5,0,0,1,368.542,114.927Zm13.916,6.673v1.719h-4.916V121.6Zm9,9.429H368.542a1.5,1.5,0,0,1-1.483-1.331,2.4,2.4,0,0,0,1.225.344h21.125a.5.5,0,0,0,0-1H368.284a1.426,1.426,0,0,1-1.242-.735v-7.6l8.5,1.822v1.792a1,1,0,0,0,1,1h6.916a1,1,0,0,0,1-1v-1.792l8.5-1.822v8.824A1.5,1.5,0,0,1,391.458,131.029Z"
               fill="#344952"
               style="fill:#002cd7;fill-opacity:1" />
          </g>
        </g>
      </g>
      <g
         id="Group_3109"
         data-name="Group 3109"
         style="fill:#002cd7;fill-opacity:1">
        <g
           id="Group_3108"
           data-name="Group 3108"
           style="fill:#002cd7;fill-opacity:1">
          <g
             id="Group_3107"
             data-name="Group 3107"
             style="fill:#002cd7;fill-opacity:1">
            <path
               id="Path_3988"
               data-name="Path 3988"
               d="M373.958,111.833a1,1,0,0,0,1-1v-1.6a1.266,1.266,0,0,1,1.265-1.264h7.554a1.266,1.266,0,0,1,1.265,1.264v1.6a1,1,0,0,0,2,0v-1.6a3.268,3.268,0,0,0-3.265-3.264h-7.554a3.268,3.268,0,0,0-3.265,3.264v1.6A1,1,0,0,0,373.958,111.833Z"
               fill="#344952"
               style="fill:#002cd7;fill-opacity:1" />
          </g>
        </g>
      </g>
    </g>
  </g>
</svg>
